<?xml version="1.0" standalone="no"?>
<!DOCTYPE svg PUBLIC "-//W3C//DTD SVG 20010904//EN"
 "http://www.w3.org/TR/2001/REC-SVG-20010904/DTD/svg10.dtd">
<svg version="1.0" xmlns="http://www.w3.org/2000/svg"
 width="521.000000pt" height="521.000000pt" viewBox="0 0 521.000000 521.000000"
 preserveAspectRatio="xMidYMid meet">
<metadata>
Created by potrace 1.14, written by Peter Selinger 2001-2017
</metadata>
<g transform="translate(0.000000,521.000000) scale(0.100000,-0.100000)"
fill="#000000" stroke="none">
<path d="M3091 4722 c-7 -13 0 -37 29 -96 22 -44 37 -83 34 -88 -3 -4 -1 -8 5
-8 6 0 8 -6 5 -14 -3 -8 -13 -13 -22 -11 -9 2 -46 12 -82 20 -36 9 -101 16
-145 16 -77 0 -92 -2 -160 -17 -16 -4 -39 -8 -50 -10 -11 -1 -21 -3 -22 -4 -2
-2 -7 -4 -13 -5 -5 -1 -11 -3 -12 -5 -3 -2 -16 -5 -58 -13 -71 -14 -271 -99
-278 -119 -2 -4 -9 -8 -15 -8 -7 0 -25 -11 -41 -25 -16 -14 -33 -25 -37 -25
-9 0 -96 -86 -122 -121 -60 -80 -138 -251 -152 -330 -3 -18 -10 -40 -16 -50
-5 -11 -8 -19 -5 -19 3 0 0 -15 -5 -32 -10 -35 -3 -72 12 -63 5 4 9 -2 10 -12
9 -257 10 -273 22 -273 4 0 5 -5 2 -10 -7 -11 33 -201 44 -210 14 -11 18 -67
8 -130 -4 -28 20 -101 37 -112 6 -4 7 -8 3 -8 -4 0 -2 -10 5 -22 7 -13 13 -25
13 -28 1 -3 11 -27 24 -53 12 -27 20 -52 17 -55 -4 -3 -28 -6 -54 -7 -26 -1
-67 -6 -92 -10 -25 -5 -52 -9 -60 -10 -8 -1 -22 -5 -30 -8 -8 -3 -33 -11 -55
-18 -22 -6 -53 -19 -70 -27 -16 -9 -33 -15 -37 -14 -5 1 -8 -2 -8 -8 0 -5 -7
-10 -16 -10 -9 0 -29 -9 -45 -21 -16 -11 -29 -17 -29 -13 0 3 -6 1 -14 -5 -9
-8 -30 -10 -56 -6 -48 7 -90 -14 -90 -44 0 -20 -22 -33 -42 -26 -31 11 -112
17 -223 18 -116 0 -170 -5 -265 -24 -83 -17 -95 -20 -100 -27 -3 -4 -16 -8
-29 -10 -27 -3 -193 -71 -201 -82 -3 -4 -23 -18 -45 -32 -42 -27 -97 -71 -153
-125 -19 -18 -37 -33 -40 -33 -17 0 -104 -117 -101 -136 0 -4 -4 -10 -10 -13
-10 -7 -73 -141 -66 -141 2 0 -4 -20 -15 -45 -11 -25 -17 -45 -13 -45 3 0 0
-7 -7 -15 -9 -11 -9 -15 -1 -15 7 0 10 -4 6 -9 -8 -14 -13 -71 -6 -71 4 0 6
-12 6 -27 -1 -16 3 -34 8 -41 6 -7 7 -15 4 -19 -4 -3 -2 -12 4 -20 6 -7 9 -13
6 -13 -3 0 -1 -15 4 -32 6 -18 12 -44 15 -58 2 -14 7 -36 11 -50 11 -43 13
-54 15 -72 1 -10 5 -18 9 -18 4 0 14 -17 22 -38 8 -20 31 -54 51 -76 20 -21
36 -42 36 -47 0 -5 4 -9 10 -9 8 0 58 -30 95 -57 14 -10 61 -37 101 -58 l30
-16 -3 -77 c-11 -228 -12 -276 -2 -294 6 -11 12 -29 14 -40 3 -12 8 -24 12
-27 5 -3 9 -12 11 -20 2 -8 12 -27 23 -43 11 -15 17 -28 12 -28 -4 0 -3 -4 2
-8 6 -4 22 -29 35 -55 37 -70 108 -138 189 -179 39 -19 68 -32 66 -28 -3 5 4
6 15 3 12 -3 19 -8 16 -11 -10 -10 16 -43 30 -38 8 3 14 1 14 -4 0 -5 -9 -11
-20 -13 -18 -4 -18 -5 2 -3 27 1 32 17 13 41 -12 17 -14 17 -9 3 7 -22 -11
-24 -19 -3 -8 18 11 31 25 17 6 -6 17 -8 25 -5 21 8 11 -46 -12 -63 -10 -8
-14 -14 -9 -14 5 0 20 10 33 23 23 20 32 22 131 19 l106 -4 41 34 c26 22 60
39 95 46 49 11 57 17 78 55 13 23 32 52 43 64 11 12 17 28 14 36 -8 22 3 32
80 71 59 29 84 36 131 36 43 0 63 5 78 19 18 16 48 25 164 47 42 8 52 -8 56
-82 4 -73 4 -77 22 -139 26 -97 46 -182 46 -202 l0 -23 1446 0 c795 0 1451 4
1458 9 11 6 10 10 -4 15 -9 3 -14 9 -11 13 4 3 2 14 -4 24 -6 13 -6 25 1 38 8
16 6 22 -7 31 -15 9 -14 10 7 7 14 -2 19 -2 13 0 -10 3 -10 10 -2 26 10 21 10
21 -5 3 -13 -17 -16 -17 -16 -4 0 9 -6 19 -12 22 -7 3 -5 4 6 3 12 -1 20 5 22
21 2 12 -1 22 -6 22 -6 0 -10 7 -10 16 0 9 5 12 13 8 7 -5 7 -1 -3 12 -22 29
-24 30 -18 13 4 -9 2 -22 -2 -30 -6 -8 -4 -17 3 -22 8 -6 7 -7 -3 -4 -8 2 -13
11 -11 18 2 8 4 33 3 56 0 25 4 43 10 43 6 0 8 3 5 6 -4 4 -13 2 -20 -4 -11
-10 -14 -3 -16 34 -1 34 3 50 16 60 17 13 17 14 1 8 -16 -5 -18 1 -19 42 -3
135 -4 164 -9 164 -7 0 -4 257 3 300 12 68 22 147 32 253 1 10 -2 44 -7 75 -4
32 -10 80 -13 107 -3 28 -12 75 -20 105 -8 30 -16 67 -19 82 -2 14 -10 36 -16
48 -6 12 -14 34 -16 48 -3 15 -9 31 -15 37 -5 5 -9 17 -9 27 0 10 -5 18 -10
18 -6 0 -9 3 -8 8 4 11 -54 112 -64 112 -4 0 -8 5 -8 11 0 6 -14 31 -32 57
-27 41 -52 67 -129 137 -9 8 -23 15 -32 15 -10 0 -17 4 -17 8 0 5 -22 19 -49
32 -28 12 -64 37 -81 55 l-31 32 21 25 c11 15 20 30 20 34 0 4 7 15 14 23 8 9
18 32 21 50 3 19 9 39 12 44 12 20 4 68 -17 97 -12 17 -20 40 -19 53 6 49 -11
83 -52 106 -22 13 -43 29 -46 37 -3 8 -9 11 -14 8 -5 -3 -9 0 -9 5 0 19 -68
12 -87 -8 -10 -11 -31 -21 -48 -24 -43 -7 -82 -24 -91 -39 -11 -18 -13 -58 -2
-64 18 -12 6 -34 -32 -55 -22 -13 -40 -29 -40 -36 0 -7 -4 -13 -9 -13 -11 0
-7 -47 7 -80 6 -14 24 -40 41 -58 17 -19 27 -40 24 -48 -3 -8 -8 -12 -11 -9
-7 6 -54 -24 -65 -42 -4 -7 -23 -13 -41 -13 -30 0 -40 8 -82 65 -53 69 -68 79
-128 77 -47 -2 -71 13 -53 33 7 7 15 11 18 9 8 -5 59 53 59 66 0 6 7 13 15 16
8 4 13 10 10 15 -3 4 13 13 37 19 39 11 71 37 132 110 20 25 47 84 52 115 2
11 7 36 12 56 9 36 8 175 -2 215 -3 11 -8 39 -12 60 -3 21 -9 43 -14 48 -5 5
-6 15 -3 22 3 8 1 14 -5 14 -5 0 -12 8 -15 19 -2 10 -23 27 -45 36 -49 22 -57
37 -38 78 8 18 13 41 12 52 -4 33 -18 89 -24 100 -4 6 -7 22 -7 37 0 15 -4 30
-8 34 -4 4 -7 17 -7 29 0 12 -11 34 -25 49 -14 15 -25 30 -26 34 0 4 -2 14 -4
22 -2 8 -6 32 -10 54 -11 64 -12 69 -34 131 -22 63 -85 161 -150 233 -21 24
-42 58 -46 75 -4 18 -9 37 -10 43 -17 70 -38 124 -57 141 -40 36 -127 93 -143
93 -8 0 -15 4 -15 8 0 4 -17 14 -37 21 -21 8 -40 17 -43 20 -11 14 -151 71
-175 71 -13 0 -29 -8 -34 -18z m1899 -4206 c0 -3 -4 -8 -10 -11 -5 -3 -10 -1
-10 4 0 6 5 11 10 11 6 0 10 -2 10 -4z m27 -100 c0 -8 -6 -12 -15 -9 -11 5
-11 7 0 14 7 5 13 9 14 9 0 0 1 -6 1 -14z m-3923 -142 c3 -8 2 -12 -4 -9 -6 3
-10 10 -10 16 0 14 7 11 14 -7z m-33 -17 c-10 -9 -11 -8 -5 6 3 10 9 15 12 12
3 -3 0 -11 -7 -18z"/>
<path d="M5025 300 c-3 -5 -2 -18 4 -27 7 -14 9 -12 8 10 -2 30 -3 31 -12 17z"/>
<path d="M935 230 c3 -5 8 -10 11 -10 2 0 4 5 4 10 0 6 -5 10 -11 10 -5 0 -7
-4 -4 -10z"/>
</g>
</svg>
